# xmcd
#
# Track frame offsets: 
#        150
#        13943
#        26497
#        41354
#        52635
#        65983
#        79195
#        92761
#        106635
#        120201
#        131102
#        144107
#        156608
#        170434
#        183469
#        195421
#        210185
#        221467
#        237300
#        253572
#        273494
#        286387
#        315937
#        339017
#
# Disc length: 4761 seconds
#
# Revision: 3
# Processed by: cddbd v1.5.2PL0 Copyright (c) Steve Scherf et al.
# Submitted via: ExactAudioCopyFreeDBPlugin 1.0
#
DISCID=41129718
DTITLE=Various Artist - A Soldier's Sad Story:  Vietnam Through the E
DTITLE=yes of Black America, 1966-73 [Kent Soul]
DYEAR=2003
DGENRE=Soul
TTITLE0=The Monitors - Greetings (This is Uncle Sam)
TTITLE1=The Players - He'll Be Back
TTITLE2=William Bell - Marching Off to War
TTITLE3=Eddy G. Giles and The Jive Five - While I'm Away (Baby Keep the 
TTITLE3=Faith)
TTITLE4=Big Amos - Going to Viet Nam
TTITLE5=Mike Williams - Lonely Soldier
TTITLE6=Joe Tex - I Believe I'm Gonna Make It
TTITLE7=Johnny and Jon - Christmas in Vietnam
TTITLE8=Jimmy Holiday - I'm Gonna Help Hurry My Brothers Home
TTITLE9=James Carr - Let's Face Facts
TTITLE10=Zerben R. Hicks and The Dynamics - Lights Out
TTITLE11=Richard Barbary - When Johnny Comes Marching Home
TTITLE12=Tiny Watkins - A Soldier's Sad Story
TTITLE13=Emanuel Laskey - A Letter from Viet Nam
TTITLE14=Gloria Edwards - Something You Couldn't Write About
TTITLE15=Mel and Tim - Mail Call Time
TTITLE16=The O'Jays - There's Someone (Waiting Back Home)
TTITLE17=Edwin Starr - Stop the War Now
TTITLE18=Freda Payne - Bring the Boys Home
TTITLE19=The Whispers - P.O.W. - M.I.A.
TTITLE20=Carla Whitney - War
TTITLE21=Bill Withers - I Can't Write Left Handed
TTITLE22=Curtis Mayfield - Back to the World
TTITLE23=Swamp Dogg - Sam Stone
EXTD=YEAR: 2003
EXTT0=
EXTT1=
EXTT2=
EXTT3=
EXTT4=
EXTT5=
EXTT6=
EXTT7=
EXTT8=
EXTT9=
EXTT10=
EXTT11=
EXTT12=
EXTT13=
EXTT14=
EXTT15=
EXTT16=
EXTT17=
EXTT18=
EXTT19=
EXTT20=
EXTT21=
EXTT22=
EXTT23=
PLAYORDER=
